<?xml version="1.0" standalone="no"?>
<!DOCTYPE svg PUBLIC "-//W3C//DTD SVG 20010904//EN"
 "http://www.w3.org/TR/2001/REC-SVG-20010904/DTD/svg10.dtd">
<svg version="1.0" xmlns="http://www.w3.org/2000/svg"
 width="1730.000000pt" height="380.000000pt" viewBox="0 0 1730.000000 380.000000"
 preserveAspectRatio="xMidYMid meet">

<g transform="translate(0.000000,380.000000) scale(0.100000,-0.100000)"
fill="#000000" stroke="none">
<path d="M2220 3617 l0 -33 71 -11 c74 -11 108 -30 143 -77 21 -27 21 -35 23
-1019 l3 -992 -23 -39 c-29 -52 -71 -75 -149 -84 -62 -7 -63 -7 -66 -39 l-3
-33 506 0 c459 0 506 2 512 16 12 32 -12 49 -76 56 -79 9 -128 39 -152 92 -18
39 -19 87 -19 1006 0 570 -4 989 -10 1024 -13 79 -39 127 -81 148 -30 16 -69
18 -356 18 l-323 0 0 -33z"/>
<path d="M7887 3644 c-4 -4 -7 -19 -7 -34 0 -26 3 -28 56 -33 80 -8 143 -43
168 -92 21 -39 21 -54 24 -998 1 -630 -1 -971 -8 -996 -21 -80 -76 -121 -175
-130 -59 -6 -60 -7 -63 -38 l-3 -33 510 0 511 0 0 29 c0 33 -14 41 -68 41 -80
1 -152 55 -172 130 -6 24 -9 262 -8 656 l3 618 68 37 c68 36 150 59 211 59 65
0 110 -21 163 -75 43 -44 56 -66 77 -133 38 -121 46 -245 46 -711 -1 -447 -3
-475 -47 -523 -29 -32 -74 -51 -138 -57 -59 -6 -60 -7 -63 -38 l-3 -33 510 0
511 0 0 29 c0 33 -14 41 -68 41 -44 0 -109 29 -135 58 -44 49 -46 74 -47 557
0 506 -3 532 -61 647 -81 161 -269 263 -544 297 -186 23 -321 9 -425 -44 -27
-14 -52 -25 -55 -25 -3 0 -5 139 -5 310 0 350 -6 395 -55 449 l-33 36 -334 3
c-184 1 -337 0 -341 -4z"/>
<path d="M16940 3388 c-110 -31 -169 -158 -125 -266 72 -171 314 -160 374 17
23 71 5 140 -53 197 -57 58 -119 74 -196 52z m134 -61 c117 -67 93 -239 -40
-276 -52 -14 -104 2 -146 48 -34 36 -38 46 -38 94 0 124 119 195 224 134z"/>
<path d="M16955 3280 c-16 -4 -24 -8 -17 -9 16 -1 17 -122 0 -139 -9 -9 -5
-12 18 -12 29 0 30 2 26 36 -6 46 16 43 38 -4 8 -17 23 -32 33 -32 21 0 21 1
-3 44 -14 22 -17 37 -10 41 5 3 10 20 10 36 0 22 -6 32 -26 39 -28 11 -26 11
-69 0z m60 -45 c0 -20 -6 -31 -17 -33 -15 -3 -18 4 -18 33 0 29 3 36 18 33 11
-2 17 -13 17 -33z"/>
<path d="M3577 3343 c-4 -3 -7 -34 -7 -67 0 -124 -41 -239 -106 -295 -52 -47
-76 -53 -204 -60 l-115 -6 0 -30 c0 -26 4 -30 30 -33 99 -9 163 -40 193 -95
15 -29 18 -80 23 -472 5 -434 6 -441 32 -537 53 -197 147 -323 300 -398 110
-54 202 -72 347 -68 102 3 121 6 173 31 84 42 164 154 126 178 -28 18 -48 8
-73 -36 -32 -54 -94 -93 -166 -104 -102 -16 -166 21 -197 114 -16 45 -18 122
-21 712 l-3 663 263 2 263 3 3 38 3 37 -265 0 -266 0 0 215 0 215 -163 0 c-90
0 -167 -3 -170 -7z"/>
<path d="M10805 2983 c-208 -44 -409 -173 -533 -340 -178 -242 -229 -545 -140
-823 59 -185 188 -363 539 -750 147 -162 179 -210 179 -263 0 -33 -7 -46 -42
-82 -53 -52 -130 -82 -235 -92 l-78 -8 -3 -32 -3 -33 511 0 511 0 -3 33 -3 32
-72 6 c-143 13 -249 67 -278 142 -17 45 -17 47 4 90 12 24 76 104 142 178 527
583 623 757 606 1102 -20 422 -331 772 -751 846 -84 15 -268 12 -351 -6z m345
-333 c156 -45 295 -178 352 -337 26 -71 35 -216 18 -296 -16 -77 -71 -185
-125 -245 -254 -283 -714 -222 -883 117 -214 426 179 894 638 761z"/>
<path d="M7343 2930 c-101 -9 -211 -38 -270 -72 -21 -12 -67 -44 -101 -71 -35
-27 -65 -47 -66 -45 -1 2 -13 28 -26 58 -14 30 -38 69 -54 87 l-28 33 -324 0
-324 0 0 -34 0 -33 60 -6 c90 -10 145 -45 169 -110 7 -19 11 -231 11 -640 l0
-612 -23 -39 c-29 -52 -71 -75 -149 -84 -62 -7 -63 -7 -66 -39 l-3 -33 506 0
c459 0 506 2 512 16 12 32 -12 49 -76 56 -79 9 -128 39 -152 92 -17 38 -19 77
-19 618 l0 576 60 55 c88 79 175 119 271 125 46 3 84 0 97 -7 31 -16 41 -67
32 -153 -17 -144 29 -236 145 -295 61 -31 157 -35 220 -9 166 70 216 291 96
428 -95 108 -271 156 -498 138z"/>
<path d="M13024 2930 c-64 -9 -133 -33 -203 -69 l-54 -28 -42 44 -42 43 -311
0 -312 0 0 -34 0 -33 60 -6 c78 -7 137 -40 164 -92 20 -39 21 -55 24 -619 2
-394 -1 -595 -8 -632 -19 -92 -69 -133 -175 -143 -59 -6 -60 -7 -63 -38 l-3
-33 510 0 511 0 0 29 c0 32 -14 41 -63 41 -38 0 -105 30 -129 56 -9 11 -21 31
-27 46 -7 18 -11 252 -11 665 l-1 638 58 32 c192 106 360 75 436 -80 59 -120
60 -136 64 -696 4 -463 3 -519 -12 -558 -23 -59 -73 -92 -155 -101 -65 -7 -89
-24 -77 -56 6 -14 53 -16 512 -16 l506 0 -3 33 c-3 32 -4 32 -66 39 -76 8
-119 32 -147 78 -19 34 -20 56 -26 530 -6 537 -6 540 -66 658 l-28 55 49 43
c62 54 145 99 221 119 190 49 304 -29 362 -247 14 -54 17 -137 20 -577 4 -463
3 -519 -12 -558 -23 -59 -73 -92 -155 -101 -65 -7 -89 -24 -77 -56 6 -14 53
-16 512 -16 l506 0 -3 33 c-3 32 -4 32 -66 39 -76 8 -126 37 -152 87 -17 35
-19 70 -23 527 -4 523 -5 531 -58 640 -12 26 -48 75 -80 109 -126 134 -343
204 -639 207 -115 1 -145 -3 -200 -21 -85 -29 -174 -79 -233 -131 l-47 -42
-37 30 c-96 74 -218 122 -374 146 -119 18 -269 25 -335 16z"/>
<path d="M777 2914 c-141 -25 -347 -107 -347 -137 0 -7 6 -22 14 -32 13 -18
16 -18 92 17 207 94 425 122 566 73 134 -47 217 -199 218 -397 l0 -78 -27 11
c-183 70 -507 67 -721 -5 -133 -46 -231 -104 -318 -191 -64 -63 -98 -116 -124
-194 -77 -230 70 -481 362 -616 144 -66 354 -103 528 -92 113 8 181 25 268 68
l64 31 40 -41 40 -41 329 0 c296 0 330 2 336 16 12 32 -12 49 -76 56 -72 8
-124 37 -149 81 -15 28 -18 79 -23 427 -6 423 -11 464 -64 605 -33 90 -103
193 -173 255 -69 62 -207 131 -317 159 -162 41 -373 51 -518 25z m396 -579
c34 -9 81 -23 105 -32 l42 -16 0 -297 c0 -163 3 -351 6 -417 l7 -121 -40 -26
c-61 -41 -132 -64 -231 -77 -204 -26 -357 45 -396 184 -50 173 -47 530 5 647
23 51 79 114 124 138 83 44 242 51 378 17z"/>
<path d="M5075 2919 c-360 -45 -595 -245 -677 -576 -28 -114 -30 -357 -5 -471
85 -375 347 -576 782 -599 333 -18 635 121 829 381 20 27 36 55 36 63 0 13
-46 41 -53 32 -2 -2 -24 -32 -50 -65 -128 -169 -333 -292 -547 -330 -174 -30
-293 -5 -388 80 -71 64 -88 144 -99 453 l-6 193 609 2 609 3 -2 95 c-3 122
-30 230 -90 350 -106 217 -318 351 -614 390 -88 11 -237 11 -334 -1z m322 -79
c71 -30 137 -103 157 -172 21 -71 35 -224 36 -380 l0 -128 -345 0 -345 0 0 78
c0 112 17 296 36 382 30 142 85 208 197 236 75 19 200 12 264 -16z"/>
<path d="M16003 2919 c-472 -61 -722 -375 -700 -879 7 -150 31 -253 88 -370
60 -121 179 -241 299 -298 47 -23 117 -50 157 -61 174 -47 400 -52 558 -11
204 52 427 205 533 366 30 44 31 49 15 66 -9 10 -21 18 -27 18 -6 0 -35 -31
-65 -70 -88 -113 -194 -195 -334 -260 -121 -56 -202 -74 -337 -74 -136 0 -180
15 -260 90 -38 36 -54 60 -65 98 -20 70 -35 244 -35 408 l0 138 608 2 607 3
-3 70 c-12 320 -149 552 -399 679 -154 77 -424 114 -640 85z m333 -84 c29 -14
67 -42 85 -62 68 -78 84 -150 95 -435 l7 -178 -348 0 -348 0 6 168 c9 251 40
397 100 460 54 58 142 83 266 77 64 -3 97 -10 137 -30z"/>
</g>
</svg>
