<svg width="600" height="644" viewBox="0 0 600 644" xmlns="http://www.w3.org/2000/svg"><title>airbnb-logo</title><path d="M300.2133 490.308c-36.256-45.4976-57.583-85.379-64.692-119.5023-7.109-27.7251-4.2654-49.763 7.82-66.1138 12.7961-19.1943 31.9905-28.436 56.872-28.436s44.0758 9.2417 56.872 28.436c12.0853 16.3508 14.929 38.3887 7.82 66.1138-7.82 34.8341-29.147 74.6445-64.692 119.5024zm257.4881 30.5688c-4.9763 33.4123-27.7251 61.1374-59.0047 74.6445-60.4266 26.3033-120.2133-15.6398-171.3981-72.5118 84.6682-105.9953 100.308-188.4597 63.981-241.8484-21.327-30.5687-51.8957-45.4976-91.0663-45.4976-78.91 0-122.346 66.8247-105.2844 144.3839 9.9526 41.9431 36.256 89.6445 78.199 142.962-26.3033 29.147-51.1848 49.7631-73.2227 62.5593-17.0616 9.2417-33.4123 14.929-49.0521 16.3507C79.052 612.583 22.8199 542.9147 48.4123 471.0427c3.5545-9.2418 10.6635-26.3034 22.7488-52.6067l.711-1.4218c39.0995-85.3791 86.8009-182.0616 141.5402-289.4787l1.4218-3.5545 15.6398-29.8578c12.0853-22.0379 17.0616-31.9905 36.256-44.0758 9.2417-5.6872 20.616-8.5308 33.4123-8.5308 25.5924 0 45.4976 14.9289 54.0284 27.0142 4.2654 6.3981 9.2417 14.929 15.6398 25.5924l14.929 29.147 2.1326 4.2653c54.7394 107.4171 102.4408 204.0996 141.5403 289.4787l.711.711 14.218 32.7013 8.5307 20.6162c6.5403 16.4218 7.9621 32.7725 5.8294 49.834zm32.7014-64.0522c-4.9763-15.6398-13.507-34.1232-24.1706-56.161v-.711c-50.474-107.417-97.4644-204.0995-142.2512-290.9005l-2.8436-4.2654C389.147 39.384 366.3981.2133 300.2133.2133c-65.4029 0-93.199 45.4976-121.6351 104.5734l-2.1327 4.2654c-44.7867 86.801-91.7773 183.4834-142.2512 290.9005v1.4218l-14.9289 32.7014c-5.6872 13.5071-8.5308 20.6161-9.2417 22.7488-36.256 99.5972 38.3886 187.038 128.744 187.038.711 0 3.5546 0 7.109-.711h9.9527c46.9194-5.6871 95.3317-35.545 144.3839-88.9336 49.0521 53.3175 97.4644 83.2465 144.3839 88.9337h9.9526c3.5545.7109 6.398.7109 7.109.7109 90.3554.071 165-87.4408 128.744-187.038z" fill="#FF5A5F" fill-rule="nonzero"/></svg>