<svg id="Layer_1" data-name="Layer 1" xmlns="http://www.w3.org/2000/svg" xmlns:xlink="http://www.w3.org/1999/xlink" viewBox="0 0 366.34 366.34"><defs><style>.cls-1{fill:#f2d4cf;}.cls-2{fill:#daaea8;}.cls-3{fill:url(#linear-gradient);}.cls-4{fill:url(#linear-gradient-2);}.cls-5{fill:none;stroke:#00214e;stroke-miterlimit:10;}.cls-6{fill:#00214e;}.cls-7{fill:#fff;}</style><linearGradient id="linear-gradient" x1="141.11" y1="152.44" x2="296.66" y2="22.97" gradientUnits="userSpaceOnUse"><stop offset="0" stop-color="#315676"/><stop offset="1" stop-color="#e1b9e0"/></linearGradient><linearGradient id="linear-gradient-2" x1="235.68" y1="3.82" x2="284.26" y2="264.56" xlink:href="#linear-gradient"/></defs><title>Artboards_Diversity_Avatars_by_Netguru</title><path class="cls-1" d="M296.41,283.6a184.56,184.56,0,0,1-226.48-1l48.66-22.81a46.83,46.83,0,0,0,6.65-3.82c.64-.44,1.28-.9,1.89-1.38a46.35,46.35,0,0,0,12.78-15.09A44.69,44.69,0,0,0,144.55,225a67.91,67.91,0,0,0,.74-9.91c0-5.72-.31-11.44-.37-17.17q-.06-4.76-.1-9.51l2,1,5.2,2.69,2.41.41,27.88,4.74,31.12,5.3.94,32,.31,10.46.15,5.08v.33l12.1,4.92Z"/><path class="cls-2" d="M214.83,248.1a16,16,0,0,1-10.07-1.56l-59.67-48.78c-.07-2.26-.13.11-.16-2.15q-.06-4.76-.1-9.51l2,1,5.2,2.69,2.41.41L182.3,195l31.12,5.3.94,32,.31,10.46.15,5.08v.33Z"/><path class="cls-3" d="M282,44.42l-.27.11-3.06,58.12a78.13,78.13,0,0,1-50.17,68.9h0L145,200.42c0-.73-5.31-6-12-12.41a91.08,91.08,0,0,1-28.29-64h0c-.94-42.31,32-78.28,74.34-79.57.8,0,1.6,0,2.41,0Z"/><path class="cls-4" d="M281.71,44.53l-.53,52.25a80.53,80.53,0,0,1-52.7,74.77h0V102.92S253.27,44.81,281.71,44.53Z"/><circle class="cls-1" cx="134.98" cy="160.42" r="17"/><circle class="cls-2" cx="140.38" cy="160.42" r="15.22"/><path class="cls-1" d="M140.6,144.38l4.38,57,66.44,38.82a19.77,19.77,0,0,0,24.68-9.86c9.56-19.58,24.9-50.5,22.88-62-3-17-11-23-11-23l3.33-19.94c1.25-7.51,2.86-15.35,1-22.9-2.13-8.66-8.67-12.35-14.05-18.82-14.16,18.24-37.44,28.55-57.77,39C170,128.2,140.6,144.38,140.6,144.38Z"/><path class="cls-5" d="M172.65,132.59a80.57,80.57,0,0,1,28.13-.79"/><path class="cls-5" d="M231.7,132.7a55,55,0,0,1,17.45-1.21"/><path class="cls-5" d="M208.67,171.18a3.4,3.4,0,0,0,2.11,6.38"/><ellipse class="cls-6" cx="186.71" cy="146.86" rx="3.27" ry="7.94" transform="translate(26.47 322.22) rotate(-85.77)"/><ellipse class="cls-6" cx="238.79" cy="146.14" rx="7.94" ry="3.27" transform="translate(-16.57 31.39) rotate(-7.27)"/><path class="cls-5" d="M226.73,160.83s.29,5.65,1.61,8.3c.57,1.14,1.46,2.1,2,3.24,2.22,4.33-1.36,5.24-4.81,5.24"/><path class="cls-6" d="M296.41,283.6a184.56,184.56,0,0,1-226.48-1l48.66-22.81a46.83,46.83,0,0,0,6.65-3.82c.64-.44,1.28-.9,1.89-1.38a46.35,46.35,0,0,0,12.78-15.09A44.69,44.69,0,0,0,144.55,225a28.66,28.66,0,0,0,2.22,1.94,95.14,95.14,0,0,0,19.82,11.26,99,99,0,0,0,10.46,3.69,93.52,93.52,0,0,0,33,3.49c1.54-.12,3.09-.27,4.63-.38l.15,5.08v.33l12.1,4.92Z"/><path class="cls-7" d="M192.16,189.07a1.85,1.85,0,0,1,2.68-.5c2.08,1.46,5.88,4.56,11.28,5.63,7.36,1.47,13.74-1.48,15.27.42.86,1.07-.19,2.37-2.2,4a19.74,19.74,0,0,1-14.86,3.69c-7.08-1.33-12.4-9.53-12.4-12.44A1.68,1.68,0,0,1,192.16,189.07Z"/></svg>