<svg id="Layer_1" data-name="Layer 1" xmlns="http://www.w3.org/2000/svg" viewBox="0 0 80.38 107.61"><defs><style>.cls-1{fill:#6e3e50;}</style></defs><title>Artwork2_362be319-d5a5-4502-ac06-d05a7cd7a291</title><path class="cls-1" d="M68.69,11.71A40,40,0,0,0,40.36,0H40A40,40,0,0,0,1.84,52,40.78,40.78,0,0,0,7.29,63h0c5.61,8,13.8,17,21.52,25.57,0,0,4.87,4.75,4.87,7.57,0,5.75-8.4,8.25-15.07,8.26a.94.94,0,0,0-.95.93h0v1.33a.94.94,0,0,0,.94.94H61.78a.94.94,0,0,0,.94-.94h0v-1.35a.94.94,0,0,0-.94-.94h-.06c-6.69,0-15.13-2.51-15.13-8.26,0-2.82,4.9-7.57,4.9-7.57C59.23,80,67.49,70.94,73.08,63h0a40.52,40.52,0,0,0,5.46-11A40,40,0,0,0,68.63,11.7ZM39.89,62.08A23.76,23.76,0,1,1,63.62,38.29v0A23.76,23.76,0,0,1,39.89,62.08Z" transform="translate(0 0)"/></svg>