<svg xmlns="http://www.w3.org/2000/svg" viewBox="0 0 213.21 213.21"><defs><style>.cls-1{fill:#6e3e50;stroke:#fff;stroke-miterlimit:10;stroke-width:4px;}.cls-2{fill:#fff;}</style></defs><title>Asset 19</title><g id="Layer_2" data-name="Layer 2"><g id="Layer_1-2" data-name="Layer 1"><circle class="cls-1" cx="106.6" cy="106.6" r="104.6"/><path class="cls-2" d="M135.07,64.29a40,40,0,0,0-28.33-11.71h-.38a40,40,0,0,0-38.14,52,40.71,40.71,0,0,0,5.45,11h0c5.61,8,13.8,17,21.52,25.57,0,0,4.87,4.75,4.87,7.57,0,5.75-8.4,8.25-15.07,8.26a.94.94,0,0,0-.95.94v1.33a.94.94,0,0,0,.94.94h21.59v0h21.59a.94.94,0,0,0,.94-.94V157.9a.94.94,0,0,0-1-.94c-6.69,0-15.13-2.51-15.13-8.26,0-2.82,4.9-7.57,4.9-7.57,7.74-8.54,16-17.61,21.59-25.57h0a40.74,40.74,0,0,0,5.46-11,39.95,39.95,0,0,0-9.91-40.28Zm-28.8,50.37A23.76,23.76,0,1,1,130,90.9,23.77,23.77,0,0,1,106.27,114.66Z"/></g></g></svg>