<?xml version="1.0" encoding="utf-8"?>
<!-- Generator: Adobe Illustrator 22.0.0, SVG Export Plug-In . SVG Version: 6.00 Build 0)  -->
<svg version="1.1" id="Layer_1" xmlns="http://www.w3.org/2000/svg" xmlns:xlink="http://www.w3.org/1999/xlink" x="0px" y="0px"
	 viewBox="0 0 23.6 22" style="enable-background:new 0 0 23.6 22;" xml:space="preserve">
<path id="Combined-Shape" d="M22.6,17.6c-0.9,2.1-3.1,3.6-6.1,4.2c-4.9,1-10.9-0.6-14-3.5c-1-0.9-1.7-2-2.1-3.1
	c-1.2-3.7,0.3-8.3,4-11.6c3.2-3,7.2-4.1,10.5-3C16.6,1,18.2,2,19.5,3.3C23.5,7,24.7,12.8,22.6,17.6z M20.2,8.4c0-3.1-3.3-3.7-6-3.7
	c-3.1,0-6.2,1-6.4,4.4h3.8c0.1-1.4,1.1-2,2.5-2c1.3,0,2.4,0.2,2.4,1.8c0,1.5-2.1,1.4-4.4,1.7c-2.3,0.3-4.7,1-4.7,4
	c0,2.7,2.1,3.9,4.7,3.9c1.7,0,3.4-0.4,4.6-1.6c0,0.4,0.1,0.9,0.3,1.3h3.8c-0.3-0.5-0.5-1.7-0.5-2.9V8.4z"/>
<path id="Path" d="M11.1,14c0,1.4,1.1,1.7,2.3,1.7c2.9,0,3-2.3,3-3v-1.4c-0.6,0.5-1.9,0.6-3.1,0.8C12.2,12.3,11.1,12.7,11.1,14
	L11.1,14z"/>
</svg>
